<svg width="25" height="24" viewBox="0 0 25 24" fill="none" xmlns="http://www.w3.org/2000/svg">
<path d="M19.2074 4.16965L13.7074 2.10965C13.1374 1.89965 12.2074 1.89965 11.6374 2.10965L6.13741 4.16965C5.07741 4.56965 4.21741 5.80965 4.21741 6.93965V15.0396C4.21741 15.8496 4.74741 16.9196 5.39741 17.3996L10.8974 21.5096C11.8674 22.2396 13.4574 22.2396 14.4274 21.5096L19.9274 17.3996C20.5774 16.9096 21.1074 15.8496 21.1074 15.0396V6.93965C21.1174 5.80965 20.2574 4.56965 19.2074 4.16965ZM13.4174 12.8696V15.4996C13.4174 15.9096 13.0774 16.2496 12.6674 16.2496C12.2574 16.2496 11.9174 15.9096 11.9174 15.4996V12.8696C10.9074 12.5496 10.1674 11.6096 10.1674 10.4996C10.1674 9.11965 11.2874 7.99965 12.6674 7.99965C14.0474 7.99965 15.1674 9.11965 15.1674 10.4996C15.1674 11.6196 14.4274 12.5496 13.4174 12.8696Z" fill="#1C1C1C"/>
</svg>
